<?xml version="1.0" encoding="UTF-8" ?>
<!DOCTYPE svg PUBLIC "-//W3C//DTD SVG 1.1//EN" "http://www.w3.org/Graphics/SVG/1.1/DTD/svg11.dtd">
<svg width="436pt" height="500pt" viewBox="0 0 436 500" version="1.1" xmlns="http://www.w3.org/2000/svg">
<g id="#000000ff">
</g>
<g id="#005995ff">
<path fill="white" opacity="1.00" d=" M 67.60 23.63 C 73.92 21.92 80.53 22.26 87.01 21.97 C 136.69 21.98 186.37 21.98 236.04 21.98 C 256.38 21.76 276.81 22.71 296.85 26.38 C 318.60 30.58 340.18 38.49 357.48 52.65 C 372.74 66.07 384.51 83.99 389.09 103.89 C 389.29 104.38 389.68 105.37 389.87 105.86 C 390.00 106.63 390.27 108.17 390.40 108.94 L 390.75 111.15 C 376.98 105.66 362.08 103.55 348.57 97.34 C 337.16 92.37 326.57 84.50 320.53 73.40 C 318.33 69.05 313.94 66.55 309.92 64.13 C 298.11 57.47 284.54 54.08 271.01 53.87 C 261.41 54.00 251.45 55.89 243.41 61.40 C 235.54 66.70 230.29 75.58 229.19 84.98 C 228.77 88.14 229.63 91.28 230.84 94.17 C 235.74 106.47 241.31 118.80 249.97 128.95 C 253.93 133.39 258.88 137.64 265.01 138.36 C 270.45 138.95 275.49 135.86 279.07 132.01 C 284.53 126.10 288.22 118.81 291.30 111.44 C 291.88 109.80 293.10 108.55 294.32 107.35 C 293.97 114.20 291.46 120.70 288.96 127.01 C 285.57 134.89 280.47 143.28 271.76 145.91 C 263.39 148.25 255.10 143.42 249.29 137.74 C 236.78 125.52 230.11 108.69 226.02 91.99 C 223.23 94.87 220.65 97.93 217.96 100.90 C 201.40 118.68 181.99 133.63 161.34 146.35 C 121.59 170.73 77.43 187.52 32.02 197.80 C 32.13 153.87 32.01 109.93 32.08 66.00 C 32.80 46.01 48.53 28.46 67.60 23.63 Z" />
<path fill="white" opacity="1.00" d=" M 101.93 328.87 C 102.39 328.88 103.30 328.89 103.76 328.90 C 108.15 332.36 111.27 337.14 114.25 341.81 C 123.37 357.09 128.57 374.27 133.35 391.29 C 141.21 420.83 146.85 450.90 152.53 480.91 C 112.37 481.10 72.21 481.08 32.05 480.93 C 32.08 441.18 32.06 401.43 32.06 361.67 C 47.85 362.77 63.78 363.21 79.51 361.13 C 86.89 360.06 94.39 358.58 101.01 355.00 C 105.10 352.79 108.96 348.89 108.79 343.91 C 108.80 338.06 104.42 333.78 101.93 328.87 Z" />
</g>
<g id="#ffffffff">
</g>
<g id="#6a8d55ff">
<path fill="white" opacity="1.00" d=" M 389.09 103.89 L 389.99 104.08 L 390.39 105.09 L 389.87 105.86 C 389.68 105.37 389.29 104.38 389.09 103.89 Z" />
<path fill="white" opacity="1.00" d=" M 364.38 161.30 C 378.53 154.18 388.41 140.40 392.60 125.32 C 394.34 136.88 393.36 148.68 391.75 160.21 C 389.32 174.83 384.37 189.35 375.60 201.42 C 371.78 207.24 366.17 211.50 361.52 216.61 C 354.44 222.76 346.77 228.38 338.24 232.38 C 338.26 232.85 338.30 233.80 338.32 234.27 C 353.10 240.04 366.32 249.29 378.00 259.93 C 386.95 269.19 394.78 279.76 399.60 291.77 C 404.49 304.87 407.45 318.76 407.69 332.77 C 408.85 341.49 407.79 350.26 407.27 358.98 C 405.43 378.31 400.20 397.51 390.61 414.47 C 385.40 423.67 378.56 431.79 371.53 439.62 C 348.71 461.59 317.75 473.26 286.83 477.96 C 273.69 480.40 260.32 481.03 246.97 481.01 C 231.63 481.03 216.29 480.97 200.95 481.05 C 199.41 481.02 197.90 480.65 196.39 480.45 L 196.50 480.41 C 184.52 470.08 177.70 454.70 176.44 439.08 C 174.41 418.16 178.55 397.29 183.21 376.99 C 186.44 356.93 188.86 336.58 195.36 317.23 C 197.97 309.78 200.88 302.17 206.09 296.10 C 213.41 288.10 221.85 281.13 228.39 272.44 C 241.94 255.09 249.99 234.27 256.38 213.42 C 261.77 201.69 268.24 190.39 276.00 180.06 C 281.77 172.75 288.54 165.30 297.78 162.62 C 303.99 160.84 310.08 163.76 316.07 165.05 C 331.98 168.89 349.54 168.89 364.38 161.30 M 218.13 295.00 C 210.79 305.11 207.44 317.32 203.85 329.10 C 213.83 341.03 228.71 347.04 243.08 351.84 C 249.67 353.77 255.25 358.38 259.01 364.06 C 261.12 367.16 261.94 371.21 260.74 374.83 C 259.45 378.73 256.47 381.79 253.38 384.37 C 243.50 392.17 231.51 396.49 220.71 402.77 C 218.99 404.06 216.27 405.37 216.21 407.77 C 219.80 414.02 227.12 417.07 234.03 417.74 C 250.55 419.36 267.00 411.04 277.21 398.28 C 288.54 384.39 292.20 365.61 290.59 348.09 C 289.51 342.79 284.61 339.56 280.37 336.83 C 270.64 331.12 260.43 325.65 252.94 317.00 C 242.43 305.45 238.31 289.47 238.18 274.16 C 231.74 281.34 224.33 287.60 218.13 295.00 Z" />
</g>
</svg>
